<?xml version="1.0" standalone="yes"?>
<!DOCTYPE svg PUBLIC "-//W3C//DTD SVG 20010904//EN" "http://www.w3.org/TR/2001/REC-SVG-20010904/DTD/svg10.dtd">
<svg xmlns="http://www.w3.org/2000/svg" version="1.0" width="1280.000000pt" height="640.000000pt" viewBox="0 0 1280.000000 640.000000" preserveAspectRatio="xMidYMid meet" style="zoom: 0.25;" visibility="visible"><metadata visibility="hidden">Created by potrace 1.15, written by Peter Selinger 2001-2017</metadata><g transform="translate(0.000000,640.000000) scale(0.100000,-0.100000)" fill="#000000" stroke="none" visibility="visible"><path d="M11052 5253 c-39 -19 -65 -65 -60 -103 l4 -28 -345 -4 c-331 -4 -348 -5 -403 -27 -81 -31 -159 -106 -200 -189 l-33 -67 0 -1710 0 -1710 33 -67 c40 -82 119 -157 200 -190 l57 -23 1100 0 1100 0 58 23 c81 33 166 114 203 194 l29 63 0 1710 0 1710 -33 67 c-41 83 -120 158 -200 189 -54 22 -73 23 -373 27 l-316 4 5 23 c6 36 -25 91 -63 109 -50 24 -714 23 -763 -1z m1445 -344 c40 -15 73 -48 94 -94 18 -38 19 -107 19 -1688 0 -1791 3 -1685 -53 -1745 -51 -55 8 -52 -1152 -52 -1180 0 -1105 -4 -1158 60 -15 17 -31 47 -37 68 -14 51 -14 3283 0 3334 13 47 55 97 95 114 39 17 2146 21 2192 3z" visibility="visible"></path><path d="M10380,4345 l0,-345 l1025,0 l1025,0 l0,345 l0,345 l-1025,0 l-1025,0 l0,-345  z " visibility="visible"></path><path d="M10380 3535 l0 -345 1025 0 1025 0 0 345 0 345 -1025 0 -1025 0 0 -345z" visibility="visible"></path><path d="M10380 2725 l0 -345 1025 0 1025 0 0 345 0 345 -1025 0 -1025 0 0 -345z" visibility="visible"></path><path d="M10380 1915 l0 -345 1025 0 1025 0 0 345 0 345 -1025 0 -1025 0 0 -345z" visibility="visible"></path></g><g id="g1" transform=""></g></svg>