<?xml version="1.0" standalone="yes"?>
<!DOCTYPE svg PUBLIC "-//W3C//DTD SVG 20010904//EN" "http://www.w3.org/TR/2001/REC-SVG-20010904/DTD/svg10.dtd">
<svg xmlns="http://www.w3.org/2000/svg" version="1.0" width="1280.000000pt" height="640.000000pt" viewBox="0 0 1280.000000 640.000000" preserveAspectRatio="xMidYMid meet" style="zoom: 0.125;" visibility="visible"><metadata visibility="visible">Created by potrace 1.15, written by Peter Selinger 2001-2017</metadata><g transform="translate(0.000000,640.000000) scale(0.100000,-0.100000)" fill="#000000" stroke="none" visibility="visible"><path d="M4384,5256 c-42,-18 -64,-52 -64,-97 l0,-37 l-342,-4 c-325,-4 -346,-5 -398,-26 c-31,-12 -76,-36 -99,-54 c-56,-41 -117,-134 -131,-201 c-8,-37 -10,-528 -8,-1742 l3,-1690 l29,-59 c54,-110 150,-182 271,-206 c44,-8 354,-10 1125,-8 c1040,3 1066,3 1112,23 c108,46 188,128 225,230 c17,48 18,131 21,1705 c2,1206 0,1671 -8,1715 c-25,129 -90,214 -208,272 l-76,38 l-318,3 l-318,4 l0,37 c0,43 -20,75 -60,96 c-41,21 -708,22 -756,1  z m1461,-359 c22,-13 49,-40 62,-62 l23,-40 l0,-1668 c0,-1858 6,-1709 -68,-1765 l-35,-27 l-1085,-3 l-1085,-2 l-42,25 c-29,16 -50,39 -64,68 l-21,43 l0,1657 c0,1148 3,1664 11,1684 c13,34 44,70 84,94 c29,18 74,19 1105,19 l1075,0 l40,-23  z " visibility="visible"></path><path d="M3710,2725 l0,-345 l1023,2 l1022,3 l0,340 l0,340 l-1022,3 l-1023,2 l0,-345  z " visibility="visible"></path><path d="M3710,1915 l0,-345 l1023,2 l1022,3 l0,340 l0,340 l-1022,3 l-1023,2 l0,-345  z " visibility="visible"></path></g></svg>