<?xml version="1.0" standalone="yes"?>
<!DOCTYPE svg PUBLIC "-//W3C//DTD SVG 20010904//EN" "http://www.w3.org/TR/2001/REC-SVG-20010904/DTD/svg10.dtd">
<svg xmlns="http://www.w3.org/2000/svg" version="1.0" width="1280.000000pt" height="640.000000pt" viewBox="0 0 1280.000000 640.000000" preserveAspectRatio="xMidYMid meet" style="zoom: 0.25;" visibility="visible"><metadata visibility="hidden">Created by potrace 1.15, written by Peter Selinger 2001-2017</metadata><g transform="translate(0.000000,640.000000) scale(0.100000,-0.100000)" fill="#000000" stroke="none" visibility="visible"><path d="M7712 5250 c-36 -22 -66 -80 -57 -110 6 -17 -10 -18 -343 -22 l-348 -3 -76 -38 c-118 -58 -183 -143 -208 -272 -8 -44 -10 -509 -8 -1715 3 -1574 4 -1657 21 -1705 37 -102 117 -184 225 -230 46 -20 72 -20 1112 -23 771 -2 1081 0 1125 8 121 24 217 96 271 206 l29 59 3 1700 c3 1890 7 1752 -67 1856 -45 62 -94 100 -172 131 -50 20 -75 22 -366 26 l-313 4 0 31 c0 46 -21 80 -60 99 -31 16 -72 18 -385 18 -333 0 -352 -1 -383 -20z m1457 -344 c41 -22 89 -81 96 -118 3 -18 4 -778 3 -1689 l-3 -1655 -25 -37 c-13 -20 -41 -45 -61 -57 -37 -20 -42 -20 -1121 -18 l-1085 3 -35 27 c-74 57 -68 -96 -66 1775 l3 1678 23 33 c13 18 40 41 60 52 36 19 68 19 1110 20 918 0 1077 -2 1101 -14z" visibility="visible"></path><path d="M7045,3867 c-3,-6 -4,-161 -3,-342 l3,-330 l1023,-3 l1022,-2 l0,345 l0,345 l-1020,0 c-811,0 -1022,-3 -1025,-13  z " visibility="visible"></path><path d="M7045,3057 c-3,-6 -4,-161 -3,-342 l3,-330 l1023,-3 l1022,-2 l0,345 l0,345 l-1020,0 c-811,0 -1022,-3 -1025,-13  z " visibility="visible"></path><path d="M7045,2247 c-3,-6 -4,-161 -3,-342 l3,-330 l1023,-3 l1022,-2 l0,345 l0,345 l-1020,0 c-811,0 -1022,-3 -1025,-13  z " visibility="visible"></path></g></svg>