<?xml version="1.0" standalone="no"?><!DOCTYPE svg PUBLIC "-//W3C//DTD SVG 1.1//EN" "http://www.w3.org/Graphics/SVG/1.1/DTD/svg11.dtd"><svg class="icon" height="512" viewBox="0 0 1024 1024" version="1.1" xmlns="http://www.w3.org/2000/svg"><path d="M901.7088 174.82752L768.93184 42.05568c-18.52416-18.52416-47.86176-18.52416-64.83968 0L511.09888 235.04384c-18.52928 18.52416-18.52928 47.86176 0 64.8448l52.49024 52.49024-26.25024 26.24512-16.97792-16.98304c-24.704-24.69888-57.12384-35.51232-88.00256-35.51232-41.68704-33.9712-95.7184-38.59968-126.60224-7.72096s-26.24512 84.91008 7.72096 126.60224c0 32.42496 10.80832 63.29856 35.51232 88.00256l16.98816 16.97792-26.25024 26.24512-52.49024-52.49024c-18.52928-18.52928-47.86176-18.52928-64.8448 0L29.40416 716.73344c-18.52928 18.52416-18.52928 47.86176 0 64.8448l132.77696 132.77696c18.52416 18.52928 47.86688 18.52928 64.8448 0l192.98816-192.98816c18.52928-18.51904 18.52928-47.86176 0-64.8448l-44.77952-44.76928 26.25024-26.25024 58.65984 58.6752c15.44704-35.51744 40.14592-71.02464 71.02464-101.89824 30.86848-30.8736 66.38592-55.57248 101.888-71.01952l-58.66496-58.66496 26.24512-26.25024 44.7744 44.7744c18.52416 18.52416 47.86176 18.52416 64.8448 0l192.98816-192.98816c16.98816-16.98304 16.98816-46.31552-1.536-63.30368zM856.93952 508.31872c-3.09248-3.09248-7.72096-6.17472-10.80832-7.72096 0 0-1.54112 0-1.54112-1.54112-3.09248-1.54624-4.6336-3.09248-7.72096-4.62848h-1.55136c-75.648-41.69216-192.98304-12.35456-279.44448 74.10688-88.00256 88.00256-115.79904 203.8016-74.112 279.4496 1.54112 3.08736 3.09248 4.62848 4.62848 7.72096 0 0 0 1.54112 1.54624 1.54112 3.09248 4.6336 6.17472 7.7312 7.71584 10.80832 32.42496 21.61664 104.9856-6.17472 182.18496-67.93216l-38.59968-30.87872c-46.31552 37.04832-83.36384 57.12384-94.17728 47.86176-13.89568-13.89568 32.41984-83.36896 103.43936-154.38848 71.01952-71.0144 140.48768-117.33504 154.38848-103.43424 9.2672 9.26208-7.72096 41.68704-40.14592 83.36384l30.87872 38.59456c58.69056-74.112 84.93568-142.03904 63.31904-172.92288zM671.67232 715.20256c-12.34944-9.27232-12.34944-26.25536-1.54624-37.05344l4.62848-4.62848c10.8032-10.80832 27.79136-9.2672 37.04832 1.54112l41.69216 50.94912c9.2672 12.34944 9.2672 30.87872-1.54112 41.69216l13.89568-13.9008c-10.80832 10.80832-29.33248 12.34944-41.69728 1.55136l-52.48-40.15104zM771.58912 736.01536c-19.65568 0-36.0192 16.36352-37.11488 34.93888 0 19.65568 15.27808 34.93888 37.11488 34.93888 19.65568 0 37.11488-15.2832 37.11488-34.93888-1.0752-20.75136-17.4592-34.93888-37.11488-34.93888zM863.29856 736.01536c0 32.75776-13.11744 63.31392-38.2208 86.2464-24.0128 24.01792-55.66976 36.03456-90.61888 36.03456v50.23232c100.43904 0 180.1472-77.51168 181.23264-172.50304l-52.39296-0.01024zM956.09344 734.93504c0 115.71712-99.34848 210.69312-221.60896 210.69312v50.21184c150.656 0 274.01216-116.80768 274.01216-260.92032h-52.39296l-0.01024 0.01536z" /></svg>