<?xml version="1.0" standalone="yes"?>
<!DOCTYPE svg PUBLIC "-//W3C//DTD SVG 20010904//EN" "http://www.w3.org/TR/2001/REC-SVG-20010904/DTD/svg10.dtd">
<svg xmlns="http://www.w3.org/2000/svg" version="1.0" width="1280.000000pt" height="640.000000pt" viewBox="0 0 1280.000000 640.000000" preserveAspectRatio="xMidYMid meet" style="zoom: 0.125;" visibility="visible"><metadata visibility="visible">Created by potrace 1.15, written by Peter Selinger 2001-2017</metadata><g transform="translate(0.000000,640.000000) scale(0.100000,-0.100000)" fill="#000000" stroke="none" visibility="visible"><path d="M1043,5255 c-38,-16 -67,-66 -61,-105 l4,-28 l-345,-4 c-331,-4 -348,-5 -403,-27 c-81,-31 -159,-106 -200,-189 l-33,-67 l0,-1710 l0,-1710 l29,-63 c37,-80 122,-161 203,-194 l58,-23 l1100,0 l1100,0 l57,23 c81,33 160,108 200,190 l33,67 l0,1710 l0,1710 l-33,67 c-41,83 -120,158 -200,189 c-54,22 -73,23 -373,27 l-316,4 l5,23 c6,36 -25,91 -63,109 c-28,14 -84,16 -382,16 c-274,-1 -355,-4 -380,-15  z m1450,-349 c42,-17 83,-66 97,-114 c14,-51 14,-3283 0,-3334 c-6,-21 -22,-51 -37,-68 c-53,-64 22,-60 -1158,-60 c-1160,0 -1101,-3 -1152,52 c-56,60 -53,-45 -53,1743 c0,1788 -3,1683 53,1744 c48,52 4,50 1150,51 c880,0 1073,-2 1100,-14  z " visibility="visible"></path><path d="M370,1915 l0,-345 l1025,0 l1025,0 l0,345 l0,345 l-1025,0 l-1025,0 l0,-345  z " visibility="visible"></path></g></svg>