<?xml version="1.0" encoding="utf-8"?>
<!-- Svg Vector Icons : http://www.onlinewebfonts.com/icon -->
<!DOCTYPE svg PUBLIC "-//W3C//DTD SVG 1.1//EN" "http://www.w3.org/Graphics/SVG/1.1/DTD/svg11.dtd">
<svg version="1.1" xmlns="http://www.w3.org/2000/svg" xmlns:xlink="http://www.w3.org/1999/xlink" x="0px" y="0px" viewBox="0 0 1000 1000" enable-background="new 0 0 1000 1000" xml:space="preserve">
<metadata> Svg Vector Icons : http://www.onlinewebfonts.com/icon </metadata>
<g><g><path d="M980.3,342.7c-264.9-264.8-695.8-264.8-960.6,0c-12.9,12.9-12.9,33.8,0,46.7c12.9,12.9,33.8,12.9,46.7,0c239.1-239.1,628.1-239.1,867.1,0c6.5,6.5,14.9,9.7,23.4,9.7c8.5,0,16.9-3.2,23.4-9.7C993.2,376.5,993.2,355.6,980.3,342.7z"/><path d="M133.9,456.9c-12.9,12.9-12.9,33.8,0,46.7c6.5,6.5,14.9,9.7,23.4,9.7s16.9-3.2,23.4-9.7c176.1-176.1,462.6-176.1,638.7,0c12.9,12.9,33.8,12.9,46.7,0c12.9-12.9,12.9-33.8,0-46.7C664.2,255.1,335.8,255.1,133.9,456.9z"/><path d="M248.2,571.2c-12.9,12.9-12.9,33.8,0,46.7c6.5,6.5,14.9,9.7,23.4,9.7s16.9-3.2,23.4-9.7c113.1-113.1,297.1-113.1,410.2,0c12.9,12.9,33.8,12.9,46.7,0c12.9-12.9,12.9-33.8,0-46.7C613,432.3,387,432.3,248.2,571.2z"/><path d="M500,628.3c-62.8,0-113.8,51.1-113.8,113.8c0,62.8,51.1,113.8,113.8,113.8c62.8,0,113.8-51.1,113.8-113.8C613.8,679.4,562.8,628.3,500,628.3z M500,789.8c-26.3,0-47.7-21.4-47.7-47.7s21.4-47.7,47.7-47.7c26.3,0,47.7,21.4,47.7,47.7C547.7,768.4,526.3,789.8,500,789.8z"/></g><g></g><g></g><g></g><g></g><g></g><g></g><g></g><g></g><g></g><g></g><g></g><g></g><g></g><g></g><g></g></g>
</svg>