<?xml version="1.0" standalone="no"?>
<!DOCTYPE svg PUBLIC "-//W3C//DTD SVG 20010904//EN"
 "http://www.w3.org/TR/2001/REC-SVG-20010904/DTD/svg10.dtd">
<svg version="1.0" xmlns="http://www.w3.org/2000/svg"
 width="1280.000000pt" height="640.000000pt" viewBox="0 0 1280.000000 640.000000"
 preserveAspectRatio="xMidYMid meet">
<metadata>
Created by potrace 1.15, written by Peter Selinger 2001-2017
</metadata>
<g transform="translate(0.000000,640.000000) scale(0.100000,-0.100000)"
fill="#000000" stroke="none">
<path d="M1043 5255 c-38 -16 -67 -66 -61 -105 l4 -28 -345 -4 c-331 -4 -348
-5 -403 -27 -81 -31 -159 -106 -200 -189 l-33 -67 0 -1710 0 -1710 29 -63 c37
-80 122 -161 203 -194 l58 -23 1100 0 1100 0 57 23 c81 33 160 108 200 190
l33 67 0 1710 0 1710 -33 67 c-41 83 -120 158 -200 189 -54 22 -73 23 -373 27
l-316 4 5 23 c6 36 -25 91 -63 109 -28 14 -84 16 -382 16 -274 -1 -355 -4
-380 -15z m1450 -349 c42 -17 83 -66 97 -114 14 -51 14 -3283 0 -3334 -6 -21
-22 -51 -37 -68 -53 -64 22 -60 -1158 -60 -1160 0 -1101 -3 -1152 52 -56 60
-53 -45 -53 1743 0 1788 -3 1683 53 1744 48 52 4 50 1150 51 880 0 1073 -2
1100 -14z"/>
<path d="M370 1915 l0 -345 1025 0 1025 0 0 345 0 345 -1025 0 -1025 0 0 -345z"/>
<path d="M4384 5256 c-42 -18 -64 -52 -64 -97 l0 -37 -342 -4 c-325 -4 -346
-5 -398 -26 -31 -12 -76 -36 -99 -54 -56 -41 -117 -134 -131 -201 -8 -37 -10
-528 -8 -1742 l3 -1690 29 -59 c54 -110 150 -182 271 -206 44 -8 354 -10 1125
-8 1040 3 1066 3 1112 23 108 46 188 128 225 230 17 48 18 131 21 1705 2 1206
0 1671 -8 1715 -25 129 -90 214 -208 272 l-76 38 -318 3 -318 4 0 37 c0 43
-20 75 -60 96 -41 21 -708 22 -756 1z m1461 -359 c22 -13 49 -40 62 -62 l23
-40 0 -1668 c0 -1858 6 -1709 -68 -1765 l-35 -27 -1085 -3 -1085 -2 -42 25
c-29 16 -50 39 -64 68 l-21 43 0 1657 c0 1148 3 1664 11 1684 13 34 44 70 84
94 29 18 74 19 1105 19 l1075 0 40 -23z"/>
<path d="M3710 2725 l0 -345 1023 2 1022 3 0 340 0 340 -1022 3 -1023 2 0
-345z"/>
<path d="M3710 1915 l0 -345 1023 2 1022 3 0 340 0 340 -1022 3 -1023 2 0
-345z"/>
<path d="M7712 5250 c-36 -22 -66 -80 -57 -110 6 -17 -10 -18 -343 -22 l-348
-3 -76 -38 c-118 -58 -183 -143 -208 -272 -8 -44 -10 -509 -8 -1715 3 -1574 4
-1657 21 -1705 37 -102 117 -184 225 -230 46 -20 72 -20 1112 -23 771 -2 1081
0 1125 8 121 24 217 96 271 206 l29 59 3 1700 c3 1890 7 1752 -67 1856 -45 62
-94 100 -172 131 -50 20 -75 22 -366 26 l-313 4 0 31 c0 46 -21 80 -60 99 -31
16 -72 18 -385 18 -333 0 -352 -1 -383 -20z m1457 -344 c41 -22 89 -81 96
-118 3 -18 4 -778 3 -1689 l-3 -1655 -25 -37 c-13 -20 -41 -45 -61 -57 -37
-20 -42 -20 -1121 -18 l-1085 3 -35 27 c-74 57 -68 -96 -66 1775 l3 1678 23
33 c13 18 40 41 60 52 36 19 68 19 1110 20 918 0 1077 -2 1101 -14z"/>
<path d="M7045 3867 c-3 -6 -4 -161 -3 -342 l3 -330 1023 -3 1022 -2 0 345 0
345 -1020 0 c-811 0 -1022 -3 -1025 -13z"/>
<path d="M7045 3057 c-3 -6 -4 -161 -3 -342 l3 -330 1023 -3 1022 -2 0 345 0
345 -1020 0 c-811 0 -1022 -3 -1025 -13z"/>
<path d="M7045 2247 c-3 -6 -4 -161 -3 -342 l3 -330 1023 -3 1022 -2 0 345 0
345 -1020 0 c-811 0 -1022 -3 -1025 -13z"/>
<path d="M11052 5253 c-39 -19 -65 -65 -60 -103 l4 -28 -345 -4 c-331 -4 -348
-5 -403 -27 -81 -31 -159 -106 -200 -189 l-33 -67 0 -1710 0 -1710 33 -67 c40
-82 119 -157 200 -190 l57 -23 1100 0 1100 0 58 23 c81 33 166 114 203 194
l29 63 0 1710 0 1710 -33 67 c-41 83 -120 158 -200 189 -54 22 -73 23 -373 27
l-316 4 5 23 c6 36 -25 91 -63 109 -50 24 -714 23 -763 -1z m1445 -344 c40
-15 73 -48 94 -94 18 -38 19 -107 19 -1688 0 -1791 3 -1685 -53 -1745 -51 -55
8 -52 -1152 -52 -1180 0 -1105 -4 -1158 60 -15 17 -31 47 -37 68 -14 51 -14
3283 0 3334 13 47 55 97 95 114 39 17 2146 21 2192 3z"/>
<path d="M10380 4345 l0 -345 1025 0 1025 0 0 345 0 345 -1025 0 -1025 0 0
-345z"/>
<path d="M10380 3535 l0 -345 1025 0 1025 0 0 345 0 345 -1025 0 -1025 0 0
-345z"/>
<path d="M10380 2725 l0 -345 1025 0 1025 0 0 345 0 345 -1025 0 -1025 0 0
-345z"/>
<path d="M10380 1915 l0 -345 1025 0 1025 0 0 345 0 345 -1025 0 -1025 0 0
-345z"/>
</g>
</svg>
